<?xml version="1.0" encoding="utf-8"?>
<!-- Generator: Adobe Illustrator 24.0.2, SVG Export Plug-In . SVG Version: 6.00 Build 0)  -->
<svg version="1.1" id="Layer_1" xmlns="http://www.w3.org/2000/svg" x="0px" y="0px"
     viewBox="0 0 111.06 23.03" style="enable-background:new 0 0 111.06 23.03;" xml:space="preserve">
<style type="text/css">
	.st0{fill:#FFFFFF;}
	.st1{fill:#FCA929;}
	.st2{fill:#FFFFFF;}
</style>
    <g>
	<path class="st1" d="M12.46,4l0.87-0.87c1.71-1.71,4.5-1.75,6.22-0.05c1.37,1.36,1.66,3.4,0.86,5.05c-0.39,0.81-0.23,1.78,0.4,2.42
		l0,0c2.4-2.4,2.4-6.31-0.01-8.7c-2.41-2.39-6.32-2.35-8.72,0.05l-8.31,8.31L3.09,9.53C1.34,7.78,1.33,4.94,3.1,3.23
		c1.37-1.32,3.4-1.58,5.03-0.76c0.77,0.39,1.69,0.25,2.3-0.36l0.02-0.02c0.03-0.03,0.03-0.07,0-0.1C8.07-0.33,4.27-0.34,1.89,1.96
		c-2.48,2.39-2.47,6.37-0.03,8.81l8.31,8.31l-0.88,0.88c-1.71,1.71-4.5,1.75-6.22,0.05c-1.37-1.36-1.66-3.4-0.86-5.05
		c0.39-0.81,0.24-1.78-0.4-2.42l0,0c-2.4,2.4-2.4,6.31,0.01,8.7c2.41,2.39,6.32,2.35,8.72-0.05l8.32-8.32l0.69,0.69
		c1.71,1.71,1.75,4.5,0.05,6.22c-1.36,1.37-3.4,1.66-5.05,0.86c-0.81-0.39-1.78-0.24-2.42,0.4l0,0c2.4,2.4,6.31,2.4,8.7-0.01
		c2.39-2.41,2.35-6.32-0.05-8.72L12.46,4z M11.4,17.84l-6.39-6.39l6.21-6.21l6.39,6.39L11.4,17.84z"/>
        <g>
		<path class="st2" d="M30.53,6.2c0-2.57,1.9-4.39,4.55-4.39c1.54,0,2.83,0.63,3.51,1.84l-1.19,0.76c-0.55-0.85-1.4-1.24-2.34-1.24
			c-1.69,0-2.96,1.19-2.96,3.02c0,1.87,1.27,3.04,2.96,3.04c0.94,0,1.79-0.39,2.34-1.24l1.19,0.75c-0.68,1.2-1.97,1.85-3.51,1.85
			C32.44,10.6,30.53,8.77,30.53,6.2z"/>
            <path class="st2" d="M45.25,1.81v1.51C45.12,3.3,45.01,3.3,44.89,3.3c-1.68,0-2.72,1.02-2.72,2.91v4.29h-1.56V1.89h1.5v1.45
			C42.66,2.33,43.74,1.81,45.25,1.81z"/>
            <path class="st2" d="M54.85,6.72h-6.99c0.2,1.51,1.41,2.52,3.12,2.52c1.01,0,1.85-0.34,2.49-1.04l0.86,1.01
			c-0.78,0.91-1.97,1.4-3.4,1.4c-2.78,0-4.64-1.84-4.64-4.41c0-2.55,1.84-4.39,4.33-4.39c2.49,0,4.26,1.79,4.26,4.44
			C54.88,6.38,54.86,6.57,54.85,6.72z M47.85,5.59h5.53c-0.16-1.45-1.25-2.47-2.76-2.47C49.12,3.12,48.01,4.13,47.85,5.59z"/>
            <path class="st2" d="M63.63,5.3v5.2h-1.48V9.37c-0.52,0.78-1.48,1.24-2.83,1.24c-1.95,0-3.19-1.04-3.19-2.54
			c0-1.38,0.89-2.52,3.46-2.52h2.47V5.24c0-1.32-0.76-2.08-2.31-2.08c-1.02,0-2.07,0.36-2.73,0.93l-0.65-1.17
			c0.89-0.72,2.18-1.11,3.56-1.11C62.29,1.81,63.63,2.94,63.63,5.3z M62.07,7.87v-1.2h-2.41c-1.54,0-1.98,0.6-1.98,1.33
			c0,0.86,0.72,1.4,1.9,1.4C60.75,9.4,61.68,8.86,62.07,7.87z"/>
            <path class="st2" d="M71.37,10c-0.47,0.41-1.19,0.6-1.89,0.6c-1.74,0-2.73-0.96-2.73-2.7V3.17h-1.46V1.89h1.46V0h1.56v1.89h2.47
			v1.28h-2.47v4.67c0,0.93,0.49,1.45,1.35,1.45c0.46,0,0.89-0.15,1.22-0.41L71.37,10z"/>
            <path class="st2" d="M80.72,6.72h-6.99c0.2,1.51,1.41,2.52,3.12,2.52c1.01,0,1.85-0.34,2.49-1.04L80.2,9.2
			c-0.78,0.91-1.97,1.4-3.4,1.4c-2.78,0-4.64-1.84-4.64-4.41c0-2.55,1.84-4.39,4.33-4.39s4.26,1.79,4.26,4.44
			C80.75,6.38,80.73,6.57,80.72,6.72z M73.72,5.59h5.53C79.09,4.15,78,3.12,76.49,3.12C74.99,3.12,73.89,4.13,73.72,5.59z"/>
            <path class="st2" d="M39.09,18.87h-6.99c0.2,1.51,1.41,2.52,3.12,2.52c1.01,0,1.85-0.34,2.49-1.04l0.86,1.01
			c-0.78,0.91-1.97,1.4-3.4,1.4c-2.78,0-4.64-1.84-4.64-4.41c0-2.55,1.84-4.39,4.33-4.39c2.49,0,4.26,1.79,4.26,4.44
			C39.12,18.53,39.1,18.72,39.09,18.87z M32.09,17.75h5.53c-0.16-1.45-1.25-2.47-2.76-2.47C33.36,15.28,32.26,16.28,32.09,17.75z"/>
            <path class="st2" d="M49.46,17.7v4.96H47.9v-4.78c0-1.69-0.85-2.52-2.33-2.52c-1.66,0-2.73,0.99-2.73,2.86v4.44h-1.56v-8.62h1.5
			v1.3c0.63-0.88,1.74-1.38,3.11-1.38C47.98,13.96,49.46,15.16,49.46,17.7z"/>
            <path class="st2" d="M51.27,21.75l0.65-1.24c0.73,0.52,1.9,0.89,3.03,0.89c1.45,0,2.05-0.44,2.05-1.17c0-1.94-5.45-0.26-5.45-3.69
			c0-1.55,1.38-2.59,3.59-2.59c1.12,0,2.39,0.29,3.14,0.78l-0.67,1.24c-0.78-0.5-1.64-0.68-2.49-0.68c-1.37,0-2.03,0.5-2.03,1.19
			c0,2.03,5.46,0.37,5.46,3.72c0,1.56-1.43,2.55-3.72,2.55C53.4,22.76,51.98,22.32,51.27,21.75z"/>
            <path class="st2" d="M68.26,18.87h-6.99c0.2,1.51,1.41,2.52,3.12,2.52c1.01,0,1.85-0.34,2.49-1.04l0.86,1.01
			c-0.78,0.91-1.97,1.4-3.4,1.4c-2.78,0-4.64-1.84-4.64-4.41c0-2.55,1.84-4.39,4.33-4.39c2.49,0,4.26,1.79,4.26,4.44
			C68.29,18.53,68.28,18.72,68.26,18.87z M61.27,17.75h5.53c-0.16-1.45-1.25-2.47-2.76-2.47C62.54,15.28,61.43,16.28,61.27,17.75z"
            />
            <path class="st2" d="M84.77,17.7v4.96h-1.56v-4.78c0-1.69-0.81-2.52-2.23-2.52c-1.56,0-2.59,0.99-2.59,2.86v4.44h-1.56v-4.78
			c0-1.69-0.81-2.52-2.23-2.52c-1.56,0-2.59,0.99-2.59,2.86v4.44h-1.56v-8.62h1.5v1.28c0.62-0.88,1.68-1.37,2.98-1.37
			c1.32,0,2.42,0.52,2.99,1.59c0.65-0.98,1.85-1.59,3.32-1.59C83.34,13.96,84.77,15.16,84.77,17.7z"/>
            <path class="st2" d="M111.03,18.87h-6.99c0.2,1.51,1.41,2.52,3.12,2.52c1.01,0,1.85-0.34,2.49-1.04l0.86,1.01
			c-0.78,0.91-1.97,1.4-3.4,1.4c-2.78,0-4.63-1.84-4.63-4.41c0-2.55,1.84-4.39,4.33-4.39c2.49,0,4.26,1.79,4.26,4.44
			C111.06,18.53,111.05,18.72,111.03,18.87z M104.04,17.75h5.53c-0.16-1.45-1.25-2.47-2.76-2.47
			C105.3,15.28,104.2,16.28,104.04,17.75z"/>
            <path class="st2" d="M92.21,13.96c-1.22,0-2.29,0.46-3.01,1.38v-2.95h-1.56v10.27h1.5v-1.37c0.7,0.98,1.81,1.46,3.07,1.46
			c2.52,0,4.36-1.77,4.36-4.41S94.74,13.96,92.21,13.96z M92.08,21.39c-1.64,0-2.89-1.2-2.89-3.04c0-1.84,1.25-3.03,2.89-3.03
			c1.66,0,2.91,1.19,2.91,3.03C95,20.19,93.74,21.39,92.08,21.39z"/>
            <rect x="98.73" y="12.39" class="st2" width="1.56" height="10.27"/>
	</g>
</g>
</svg>
